<svg xmlns="http://www.w3.org/2000/svg" xmlns:xlink="http://www.w3.org/1999/xlink" width="500" zoomAndPan="magnify" viewBox="0 0 375 374.999991" height="500" preserveAspectRatio="xMidYMid meet" version="1.0"><defs><g/></defs><g fill="#000000" fill-opacity="1"><g transform="translate(0.0000045, 303.826509)"><g><path d="M 168.703125 -67.234375 C 168.703125 -53.503906 165.21875 -41.3125 158.25 -30.65625 C 151.289062 -20.007812 141.25 -11.734375 128.125 -5.828125 C 115 0.078125 99.601562 3.03125 81.9375 3.03125 C 67.1875 3.03125 54.8125 1.992188 44.8125 -0.078125 C 34.820312 -2.148438 24.425781 -5.757812 13.625 -10.90625 L 13.625 -64.21875 C 25.039062 -58.351562 36.90625 -53.78125 49.21875 -50.5 C 61.53125 -47.21875 72.835938 -45.578125 83.140625 -45.578125 C 92.023438 -45.578125 98.535156 -47.117188 102.671875 -50.203125 C 106.816406 -53.285156 108.890625 -57.25 108.890625 -62.09375 C 108.890625 -65.125 108.054688 -67.773438 106.390625 -70.046875 C 104.722656 -72.316406 102.046875 -74.613281 98.359375 -76.9375 C 94.671875 -79.257812 84.851562 -84.003906 68.90625 -91.171875 C 54.46875 -97.734375 43.640625 -104.09375 36.421875 -110.25 C 29.203125 -116.40625 23.847656 -123.472656 20.359375 -131.453125 C 16.878906 -139.429688 15.140625 -148.867188 15.140625 -159.765625 C 15.140625 -180.160156 22.5625 -196.0625 37.40625 -207.46875 C 52.25 -218.882812 72.644531 -224.59375 98.59375 -224.59375 C 121.507812 -224.59375 144.878906 -219.289062 168.703125 -208.6875 L 150.390625 -162.5 C 129.691406 -171.988281 111.816406 -176.734375 96.765625 -176.734375 C 88.992188 -176.734375 83.34375 -175.367188 79.8125 -172.640625 C 76.28125 -169.921875 74.515625 -166.539062 74.515625 -162.5 C 74.515625 -158.15625 76.757812 -154.265625 81.25 -150.828125 C 85.738281 -147.398438 97.929688 -141.144531 117.828125 -132.0625 C 136.910156 -123.476562 150.160156 -114.265625 157.578125 -104.421875 C 164.992188 -94.578125 168.703125 -82.179688 168.703125 -67.234375 Z M 168.703125 -67.234375 "/></g></g></g><g fill="#000000" fill-opacity="1"><g transform="translate(178.996988, 303.826509)"><g><path d="M 184.609375 -150.984375 C 184.609375 -126.253906 177.3125 -107.148438 162.71875 -93.671875 C 148.132812 -80.191406 127.414062 -73.453125 100.5625 -73.453125 L 83.75 -73.453125 L 83.75 0 L 23.921875 0 L 23.921875 -221.40625 L 100.5625 -221.40625 C 128.53125 -221.40625 149.53125 -215.296875 163.5625 -203.078125 C 177.59375 -190.867188 184.609375 -173.503906 184.609375 -150.984375 Z M 83.75 -122.21875 L 94.65625 -122.21875 C 103.632812 -122.21875 110.773438 -124.738281 116.078125 -129.78125 C 121.378906 -134.832031 124.03125 -141.800781 124.03125 -150.6875 C 124.03125 -165.625 115.753906 -173.09375 99.203125 -173.09375 L 83.75 -173.09375 Z M 83.75 -122.21875 "/></g></g></g></svg>